<mxfile host="app.diagrams.net" modified="2020-09-21T13:19:34.017Z" agent="5.0 (Windows NT 10.0; Win64; x64) AppleWebKit/537.36 (KHTML, like Gecko) Chrome/85.0.4183.102 Safari/537.36 Edg/85.0.564.51" etag="ObAHd-_Qh-vagjqM6YDd" version="13.7.3" type="github">
  <diagram id="R2lEEEUBdFMjLlhIrx00" name="Page-1">
    <mxGraphModel dx="923" dy="494" grid="1" gridSize="10" guides="1" tooltips="1" connect="1" arrows="1" fold="1" page="1" pageScale="1" pageWidth="850" pageHeight="1100" math="0" shadow="0" extFonts="Permanent Marker^https://fonts.googleapis.com/css?family=Permanent+Marker">
      <root>
        <mxCell id="0" />
        <mxCell id="1" parent="0" />
        <mxCell id="aO3IscL8VT4VF3LDPGpY-1" value="Imovel" style="whiteSpace=wrap;html=1;align=center;" vertex="1" parent="1">
          <mxGeometry x="40" width="100" height="40" as="geometry" />
        </mxCell>
        <mxCell id="aO3IscL8VT4VF3LDPGpY-2" value="Funcionarios" style="whiteSpace=wrap;html=1;align=center;" vertex="1" parent="1">
          <mxGeometry x="40" y="80" width="100" height="40" as="geometry" />
        </mxCell>
        <mxCell id="aO3IscL8VT4VF3LDPGpY-3" value="Cliente" style="whiteSpace=wrap;html=1;align=center;" vertex="1" parent="1">
          <mxGeometry x="40" y="160" width="100" height="40" as="geometry" />
        </mxCell>
        <mxCell id="aO3IscL8VT4VF3LDPGpY-4" value="Banco" style="whiteSpace=wrap;html=1;align=center;" vertex="1" parent="1">
          <mxGeometry x="40" y="240" width="100" height="40" as="geometry" />
        </mxCell>
        <mxCell id="aO3IscL8VT4VF3LDPGpY-10" value="" style="edgeStyle=orthogonalEdgeStyle;rounded=0;orthogonalLoop=1;jettySize=auto;html=1;" edge="1" parent="1" source="aO3IscL8VT4VF3LDPGpY-5" target="aO3IscL8VT4VF3LDPGpY-7">
          <mxGeometry relative="1" as="geometry" />
        </mxCell>
        <mxCell id="aO3IscL8VT4VF3LDPGpY-5" value="Departamento" style="whiteSpace=wrap;html=1;align=center;" vertex="1" parent="1">
          <mxGeometry x="40" y="320" width="100" height="40" as="geometry" />
        </mxCell>
        <mxCell id="aO3IscL8VT4VF3LDPGpY-7" value="Financeiro" style="whiteSpace=wrap;html=1;align=center;" vertex="1" parent="1">
          <mxGeometry x="160" y="320" width="100" height="40" as="geometry" />
        </mxCell>
        <mxCell id="aO3IscL8VT4VF3LDPGpY-8" value="" style="shape=ext;margin=3;double=1;whiteSpace=wrap;html=1;align=center;" vertex="1" parent="1">
          <mxGeometry x="200" width="100" height="40" as="geometry" />
        </mxCell>
        <mxCell id="aO3IscL8VT4VF3LDPGpY-9" value="Corretores&lt;br&gt;" style="whiteSpace=wrap;html=1;align=center;" vertex="1" parent="1">
          <mxGeometry x="280" y="320" width="100" height="40" as="geometry" />
        </mxCell>
        <mxCell id="aO3IscL8VT4VF3LDPGpY-21" value="Proprietaria(o)&lt;br&gt;(imovel)&lt;br&gt;" style="whiteSpace=wrap;html=1;align=center;" vertex="1" parent="1">
          <mxGeometry x="520" y="800" width="100" height="40" as="geometry" />
        </mxCell>
        <mxCell id="aO3IscL8VT4VF3LDPGpY-28" value="Imobiliaria" style="shape=ext;margin=3;double=1;whiteSpace=wrap;html=1;align=center;" vertex="1" parent="1">
          <mxGeometry x="312.5" y="440" width="100" height="40" as="geometry" />
        </mxCell>
        <mxCell id="aO3IscL8VT4VF3LDPGpY-44" value="Funcionario" style="whiteSpace=wrap;html=1;align=center;" vertex="1" parent="1">
          <mxGeometry x="312.5" y="520" width="100" height="40" as="geometry" />
        </mxCell>
        <mxCell id="aO3IscL8VT4VF3LDPGpY-45" value="Capitador&lt;br&gt;" style="whiteSpace=wrap;html=1;align=center;" vertex="1" parent="1">
          <mxGeometry x="520" y="640" width="100" height="40" as="geometry" />
        </mxCell>
        <mxCell id="aO3IscL8VT4VF3LDPGpY-46" value="Corretor&lt;br&gt;" style="whiteSpace=wrap;html=1;align=center;" vertex="1" parent="1">
          <mxGeometry x="140" y="640" width="100" height="40" as="geometry" />
        </mxCell>
        <mxCell id="aO3IscL8VT4VF3LDPGpY-50" value="Banco&lt;br&gt;" style="whiteSpace=wrap;html=1;align=center;" vertex="1" parent="1">
          <mxGeometry x="30" y="460" width="100" height="40" as="geometry" />
        </mxCell>
        <mxCell id="aO3IscL8VT4VF3LDPGpY-51" value="Imovel" style="whiteSpace=wrap;html=1;align=center;" vertex="1" parent="1">
          <mxGeometry x="30" y="640" width="100" height="40" as="geometry" />
        </mxCell>
        <mxCell id="aO3IscL8VT4VF3LDPGpY-52" value="" style="endArrow=none;html=1;entryX=0.5;entryY=1;entryDx=0;entryDy=0;exitX=0.5;exitY=0;exitDx=0;exitDy=0;" edge="1" parent="1" source="aO3IscL8VT4VF3LDPGpY-44" target="aO3IscL8VT4VF3LDPGpY-28">
          <mxGeometry width="50" height="50" relative="1" as="geometry">
            <mxPoint x="340" y="530" as="sourcePoint" />
            <mxPoint x="390" y="480" as="targetPoint" />
          </mxGeometry>
        </mxCell>
        <mxCell id="aO3IscL8VT4VF3LDPGpY-65" value="" style="endArrow=none;html=1;entryX=0.5;entryY=1;entryDx=0;entryDy=0;exitX=0.5;exitY=0;exitDx=0;exitDy=0;" edge="1" parent="1" target="aO3IscL8VT4VF3LDPGpY-44">
          <mxGeometry width="50" height="50" relative="1" as="geometry">
            <mxPoint x="362.5" y="580" as="sourcePoint" />
            <mxPoint x="400" y="570" as="targetPoint" />
            <Array as="points" />
          </mxGeometry>
        </mxCell>
        <mxCell id="aO3IscL8VT4VF3LDPGpY-70" value="d" style="ellipse;whiteSpace=wrap;html=1;aspect=fixed;" vertex="1" parent="1">
          <mxGeometry x="352.5" y="580" width="20" height="20" as="geometry" />
        </mxCell>
        <mxCell id="aO3IscL8VT4VF3LDPGpY-72" value="" style="shape=requiredInterface;html=1;verticalLabelPosition=bottom;direction=south;strokeWidth=1;rotation=74;" vertex="1" parent="1">
          <mxGeometry x="270" y="618" width="20" height="10" as="geometry" />
        </mxCell>
        <mxCell id="aO3IscL8VT4VF3LDPGpY-76" value="" style="endArrow=none;html=1;entryX=0.5;entryY=1;entryDx=0;entryDy=0;exitX=0.75;exitY=0;exitDx=0;exitDy=0;" edge="1" parent="1" source="aO3IscL8VT4VF3LDPGpY-46" target="aO3IscL8VT4VF3LDPGpY-70">
          <mxGeometry width="50" height="50" relative="1" as="geometry">
            <mxPoint x="325" y="640" as="sourcePoint" />
            <mxPoint x="365.0199999999999" y="599.9999999999999" as="targetPoint" />
          </mxGeometry>
        </mxCell>
        <mxCell id="aO3IscL8VT4VF3LDPGpY-83" value="" style="endArrow=none;html=1;exitX=0.5;exitY=1;exitDx=0;exitDy=0;entryX=0.203;entryY=-0.002;entryDx=0;entryDy=0;entryPerimeter=0;" edge="1" parent="1" source="aO3IscL8VT4VF3LDPGpY-70" target="aO3IscL8VT4VF3LDPGpY-45">
          <mxGeometry width="50" height="50" relative="1" as="geometry">
            <mxPoint x="375.0199999999999" y="608.6999999999999" as="sourcePoint" />
            <mxPoint x="334.97999999999996" y="650.0000000000001" as="targetPoint" />
          </mxGeometry>
        </mxCell>
        <mxCell id="aO3IscL8VT4VF3LDPGpY-84" value="" style="shape=requiredInterface;html=1;verticalLabelPosition=bottom;strokeWidth=1;rotation=15;" vertex="1" parent="1">
          <mxGeometry x="460" y="613" width="10" height="20" as="geometry" />
        </mxCell>
        <mxCell id="aO3IscL8VT4VF3LDPGpY-85" value="Fiancia&lt;br&gt;" style="shape=rhombus;perimeter=rhombusPerimeter;whiteSpace=wrap;html=1;align=center;strokeWidth=1;" vertex="1" parent="1">
          <mxGeometry x="30" y="720" width="100" height="40" as="geometry" />
        </mxCell>
        <mxCell id="aO3IscL8VT4VF3LDPGpY-89" value="Cliente&lt;br&gt;" style="whiteSpace=wrap;html=1;align=center;strokeWidth=1;" vertex="1" parent="1">
          <mxGeometry x="30" y="800" width="100" height="40" as="geometry" />
        </mxCell>
        <mxCell id="aO3IscL8VT4VF3LDPGpY-90" value="" style="endArrow=none;html=1;entryX=0.5;entryY=1;entryDx=0;entryDy=0;exitX=0.5;exitY=0;exitDx=0;exitDy=0;" edge="1" parent="1" source="aO3IscL8VT4VF3LDPGpY-89" target="aO3IscL8VT4VF3LDPGpY-85">
          <mxGeometry width="50" height="50" relative="1" as="geometry">
            <mxPoint x="70" y="810" as="sourcePoint" />
            <mxPoint x="120" y="760" as="targetPoint" />
          </mxGeometry>
        </mxCell>
        <mxCell id="aO3IscL8VT4VF3LDPGpY-91" value="" style="endArrow=none;html=1;entryX=0.5;entryY=1;entryDx=0;entryDy=0;exitX=0.5;exitY=0;exitDx=0;exitDy=0;" edge="1" parent="1" source="aO3IscL8VT4VF3LDPGpY-85" target="aO3IscL8VT4VF3LDPGpY-51">
          <mxGeometry width="50" height="50" relative="1" as="geometry">
            <mxPoint x="60" y="730" as="sourcePoint" />
            <mxPoint x="110" y="680" as="targetPoint" />
          </mxGeometry>
        </mxCell>
        <mxCell id="aO3IscL8VT4VF3LDPGpY-92" value="Financiado&lt;br&gt;" style="shape=rhombus;perimeter=rhombusPerimeter;whiteSpace=wrap;html=1;align=center;strokeWidth=1;" vertex="1" parent="1">
          <mxGeometry x="30" y="550" width="100" height="40" as="geometry" />
        </mxCell>
        <mxCell id="aO3IscL8VT4VF3LDPGpY-93" value="" style="endArrow=none;html=1;entryX=0.5;entryY=1;entryDx=0;entryDy=0;exitX=0.5;exitY=0;exitDx=0;exitDy=0;" edge="1" parent="1" source="aO3IscL8VT4VF3LDPGpY-92" target="aO3IscL8VT4VF3LDPGpY-50">
          <mxGeometry width="50" height="50" relative="1" as="geometry">
            <mxPoint x="60" y="540" as="sourcePoint" />
            <mxPoint x="110" y="490" as="targetPoint" />
          </mxGeometry>
        </mxCell>
        <mxCell id="aO3IscL8VT4VF3LDPGpY-94" value="" style="endArrow=none;html=1;exitX=0.5;exitY=0;exitDx=0;exitDy=0;" edge="1" parent="1" source="aO3IscL8VT4VF3LDPGpY-51">
          <mxGeometry width="50" height="50" relative="1" as="geometry">
            <mxPoint x="30" y="630" as="sourcePoint" />
            <mxPoint x="80" y="580" as="targetPoint" />
          </mxGeometry>
        </mxCell>
        <mxCell id="aO3IscL8VT4VF3LDPGpY-97" value="" style="endArrow=none;html=1;" edge="1" parent="1">
          <mxGeometry width="50" height="50" relative="1" as="geometry">
            <mxPoint x="360" y="640" as="sourcePoint" />
            <mxPoint x="360" y="600" as="targetPoint" />
          </mxGeometry>
        </mxCell>
        <mxCell id="aO3IscL8VT4VF3LDPGpY-98" value="Atendente&lt;br&gt;" style="whiteSpace=wrap;html=1;align=center;" vertex="1" parent="1">
          <mxGeometry x="312.5" y="640" width="100" height="40" as="geometry" />
        </mxCell>
        <mxCell id="aO3IscL8VT4VF3LDPGpY-99" value="Entra em&lt;br&gt;contato&lt;br&gt;" style="shape=rhombus;perimeter=rhombusPerimeter;whiteSpace=wrap;html=1;align=center;strokeWidth=1;" vertex="1" parent="1">
          <mxGeometry x="520" y="720" width="100" height="40" as="geometry" />
        </mxCell>
        <mxCell id="aO3IscL8VT4VF3LDPGpY-100" value="" style="endArrow=none;html=1;entryX=0.5;entryY=1;entryDx=0;entryDy=0;exitX=0.5;exitY=0;exitDx=0;exitDy=0;" edge="1" parent="1" source="aO3IscL8VT4VF3LDPGpY-99" target="aO3IscL8VT4VF3LDPGpY-45">
          <mxGeometry width="50" height="50" relative="1" as="geometry">
            <mxPoint x="540" y="730" as="sourcePoint" />
            <mxPoint x="590" y="680" as="targetPoint" />
          </mxGeometry>
        </mxCell>
        <mxCell id="aO3IscL8VT4VF3LDPGpY-101" value="" style="endArrow=none;html=1;entryX=0.5;entryY=1;entryDx=0;entryDy=0;exitX=0.5;exitY=0;exitDx=0;exitDy=0;" edge="1" parent="1">
          <mxGeometry width="50" height="50" relative="1" as="geometry">
            <mxPoint x="569.76" y="800" as="sourcePoint" />
            <mxPoint x="569.76" y="760" as="targetPoint" />
          </mxGeometry>
        </mxCell>
        <mxCell id="aO3IscL8VT4VF3LDPGpY-105" value="" style="shape=requiredInterface;html=1;verticalLabelPosition=bottom;strokeWidth=1;rotation=90;" vertex="1" parent="1">
          <mxGeometry x="355" y="618" width="10" height="20" as="geometry" />
        </mxCell>
        <mxCell id="aO3IscL8VT4VF3LDPGpY-111" value="" style="endArrow=none;html=1;entryX=0;entryY=0.5;entryDx=0;entryDy=0;exitX=0.458;exitY=1.025;exitDx=0;exitDy=0;exitPerimeter=0;" edge="1" parent="1" source="aO3IscL8VT4VF3LDPGpY-46" target="aO3IscL8VT4VF3LDPGpY-21">
          <mxGeometry width="50" height="50" relative="1" as="geometry">
            <mxPoint x="190" y="740" as="sourcePoint" />
            <mxPoint x="520" y="720" as="targetPoint" />
            <Array as="points">
              <mxPoint x="186" y="820" />
            </Array>
          </mxGeometry>
        </mxCell>
        <mxCell id="aO3IscL8VT4VF3LDPGpY-112" value="Contato direto&lt;br&gt;" style="shape=rhombus;perimeter=rhombusPerimeter;whiteSpace=wrap;html=1;align=center;strokeWidth=1;" vertex="1" parent="1">
          <mxGeometry x="292.5" y="790" width="120" height="60" as="geometry" />
        </mxCell>
      </root>
    </mxGraphModel>
  </diagram>
</mxfile>
